<?xml version="1.0" encoding="utf-8"?>
<!-- Uploaded to: SVG Repo, www.svgrepo.com, Generator: SVG Repo Mixer Tools -->
<svg width="800px" height="800px" viewBox="0 0 1024 1024" class="icon"  version="1.1" xmlns="http://www.w3.org/2000/svg"><path d="M810.666667 149.333333H213.333333c-23.466667 0-42.666667 19.2-42.666666 42.666667v128c0 23.466667 19.2 42.666667 42.666666 42.666667h597.333334c23.466667 0 42.666667-19.2 42.666666-42.666667V192c0-23.466667-19.2-42.666667-42.666666-42.666667zM810.666667 405.333333H213.333333c-23.466667 0-42.666667 19.2-42.666666 42.666667v128c0 23.466667 19.2 42.666667 42.666666 42.666667h597.333334c23.466667 0 42.666667-19.2 42.666666-42.666667v-128c0-23.466667-19.2-42.666667-42.666666-42.666667zM810.666667 661.333333H213.333333c-23.466667 0-42.666667 19.2-42.666666 42.666667v128c0 23.466667 19.2 42.666667 42.666666 42.666667h597.333334c23.466667 0 42.666667-19.2 42.666666-42.666667v-128c0-23.466667-19.2-42.666667-42.666666-42.666667z" fill="#D1C4E9" /><path d="M661.333333 640l149.333334 119.466667V520.533333z" fill="#2196F3" /><path d="M810.666667 597.333333c-6.4 0-14.933333 0-21.333334 2.133334v85.333333c6.4-2.133333 14.933333-2.133333 21.333334-2.133333 70.4 0 128 57.6 128 128s-57.6 128-128 128-128-57.6-128-128c0-6.4 0-12.8 2.133333-19.2l-72.533333-57.6c-8.533333 23.466667-14.933333 49.066667-14.933334 76.8 0 117.333333 96 213.333333 213.333334 213.333333s213.333333-96 213.333333-213.333333-96-213.333333-213.333333-213.333334z" fill="#2196F3" /></svg>